C:\Users\israe\Dropbox\PhDWork\ExperimentalData\subject7\145\P7S145W09_filtered35.mot
nRows=10
nColumns=28

name C:\Users\israe\Dropbox\PhDWork\ExperimentalData\subject7\145\P7S145W09_filtered35.mot
datacolumns 28
datarows 10
range 0.5170000000 0.5260000000
endheader
time	ground_force_1_vx	ground_force_1_vy	ground_force_1_vz	ground_force_1_px	ground_force_1_py	ground_force_1_pz	ground_moment_1_mx	ground_moment_1_my	ground_moment_1_mz	ground_force_2_vx	ground_force_2_vy	ground_force_2_vz	ground_force_2_px	ground_force_2_py	ground_force_2_pz	ground_moment_2_mx	ground_moment_2_my	ground_moment_2_mz	ground_force_3_vx	ground_force_3_vy	ground_force_3_vz	ground_force_3_px	ground_force_3_py	ground_force_3_pz	ground_moment_3_mx	ground_moment_3_my	ground_moment_3_mz
        0.5170000000	        0.0000000000	        0.0000000000	       -0.0000000000	        0.1988394961	        0.0000558755	       -0.3004071324	       -0.0000000000	        0.0000000000	       -0.0000000000	        0.0000000302	        0.0000000000	       -0.0000044028	        0.2029003516	       -0.0000795827	        0.4543649445	       -0.0000005403	       -0.0000000646	       -0.0000006995	      -26.8613191506	      720.6579672095	      -82.6899306828	        0.2076431971	        0.0000770316	        1.3583900146	      157.7469501716	       16.0166330251	       65.9991399434	
        0.5180000000	        0.0000000000	        0.0000000000	       -0.0000000000	        0.1988394961	        0.0000558755	       -0.3004071324	       -0.0000000000	        0.0000000000	       -0.0000000000	       -0.0000007962	        0.0000000000	       -0.0000109783	        0.2029003516	       -0.0000795827	        0.4543649445	       -0.0000006190	       -0.0000000424	       -0.0000006018	      -27.4279771429	      724.0110975572	      -84.4644670090	        0.2076431971	        0.0000770316	        1.3583900146	      158.6214328283	       16.2697760546	       66.3351040547	
        0.5190000000	        0.0000000000	        0.0000000000	       -0.0000000000	        0.1988394961	        0.0000558755	       -0.3004071324	        0.0000000000	        0.0000000000	        0.0000000000	       -0.0000019404	        0.0000000000	       -0.0000196533	        0.2029003516	       -0.0000795827	        0.4543649445	       -0.0000006776	       -0.0000000058	       -0.0000004024	      -27.9717478898	      727.3247614581	      -86.2313554491	        0.2076431971	        0.0000770316	        1.3583900146	      159.4900618545	       16.5176679519	       66.6657761055	
        0.5200000000	        0.0000000000	        0.0000000000	       -0.0000000000	        0.1988394961	        0.0000558755	       -0.3004071324	        0.0000000000	        0.0000000000	        0.0000000000	       -0.0000034472	        0.0000108872	       -0.0000306204	        0.2029003516	       -0.0000795827	        0.4543649445	       -0.0000007015	        0.0000000486	       -0.0000000713	      -28.4935153923	      730.6074033519	      -87.9905082896	        0.2076431971	        0.0000770316	        1.3583900146	      160.3519933075	       16.7608826985	       66.9901840374	
        0.5210000000	        0.0000000000	        0.0000000000	       -0.0000000000	        0.1988394961	        0.0000558755	       -0.3004071324	        0.0000000000	        0.0000000000	        0.0000000000	       -0.0000053489	        0.0000469170	       -0.0000439521	        0.2029003516	       -0.0000795827	        0.4543649445	       -0.0000006719	        0.0000001243	        0.0000004231	      -28.9938573829	      733.8605793523	      -89.7420407834	        0.2076431971	        0.0000770316	        1.3583900146	      161.2064119108	       16.9999723207	       67.3073216174	
        0.5220000000	        0.0000000000	        0.0000000000	       -0.0000000000	        0.1988394961	        0.0000558755	       -0.3004071324	        0.0000000000	        0.0000000000	        0.0000000000	       -0.0000076571	        0.0000956724	       -0.0000595369	        0.2029003516	       -0.0000795827	        0.4543649445	       -0.0000005662	        0.0000002244	        0.0000011125	      -29.4724368885	      737.0770116402	      -91.4860507392	        0.2076431971	        0.0000770316	        1.3583900146	      162.0522053964	       17.2351884297	       67.6166026224	
        0.5230000000	        0.0000000000	        0.0000000000	       -0.0000000000	        0.1988394961	        0.0000558755	       -0.3004071324	        0.0000000000	        0.0000000000	        0.0000000000	       -0.0000103510	        0.0001586761	       -0.0000770021	        0.2029003516	       -0.0000795827	        0.4543649445	       -0.0000003582	        0.0000003512	        0.0000020255	      -29.9283888420	      740.2447893818	      -93.2227740151	        0.2076431971	        0.0000770316	        1.3583900146	      162.8879449168	       17.4664118811	       67.9180849603	
        0.5240000000	        0.0000000000	        0.0000000000	       -0.0000000000	        0.1988394961	        0.0000558755	       -0.3004071324	        0.0000000000	        0.0000000000	        0.0000000000	       -0.0000133644	        0.0002368553	       -0.0000956251	        0.2029003516	       -0.0000795827	        0.4543649445	       -0.0000000186	        0.0000005055	        0.0000031838	      -30.3609934346	      743.3542533311	      -94.9529160179	        0.2076431971	        0.0000770316	        1.3583900146	      163.7121779758	       17.6932687761	       68.2124288702	
        0.5250000000	        0.0000000000	        0.0000000000	       -0.0000000000	        0.1988394961	        0.0000558755	       -0.3004071324	        0.0000000000	        0.0000000000	        0.0000000000	       -0.0000165703	        0.0003301752	       -0.0001142343	        0.2029003516	       -0.0000795827	        0.4543649445	        0.0000004834	        0.0000006862	        0.0000045964	      -30.7697388118	      746.4012755380	      -96.6773101595	        0.2076431971	        0.0000770316	        1.3583900146	      164.5235670399	       17.9152904322	       68.5005635574	
        0.5260000000	        0.0000000000	        0.0000000000	       -0.0000000000	        0.1988394961	        0.0000558755	       -0.3004071324	        0.0000000000	        0.0000000000	        0.0000000000	       -0.0000197638	        0.0004371863	       -0.0001311046	        0.2029003516	       -0.0000795827	        0.4543649445	        0.0000011785	        0.0000008891	        0.0000062534	      -31.1534873378	      749.3852983843	      -98.3960580001	        0.2076431971	        0.0000770316	        1.3583900146	      165.3210288997	       18.1320373254	       68.7832398935	
